# Blender v2.82 (sub 7) OBJ File: 'treeTwo.blend'
# www.blender.org
mtllib treeTwo.mtl
o Cube
v 0.260085 2.409180 -0.268516
v 0.260085 -0.020209 -0.268516
v 0.260085 2.409180 0.268516
v 0.260085 -0.020209 0.268516
v -0.260085 2.409180 -0.268516
v -0.260085 -0.020209 -0.268516
v -0.260085 2.409180 0.268516
v -0.260085 -0.020209 0.268516
vt 0.625000 0.500000
vt 0.875000 0.500000
vt 0.875000 0.750000
vt 0.625000 0.750000
vt 0.375000 0.750000
vt 0.625000 1.000000
vt 0.375000 1.000000
vt 0.375000 0.000000
vt 0.625000 0.000000
vt 0.625000 0.250000
vt 0.375000 0.250000
vt 0.125000 0.500000
vt 0.375000 0.500000
vt 0.125000 0.750000
vn 0.0000 1.0000 0.0000
vn 0.0000 0.0000 1.0000
vn -1.0000 0.0000 0.0000
vn 0.0000 -1.0000 0.0000
vn 1.0000 0.0000 0.0000
vn 0.0000 0.0000 -1.0000
usemtl Material
s off
f 1/1/1 5/2/1 7/3/1 3/4/1
f 4/5/2 3/4/2 7/6/2 8/7/2
f 8/8/3 7/9/3 5/10/3 6/11/3
f 6/12/4 2/13/4 4/5/4 8/14/4
f 2/13/5 1/1/5 3/4/5 4/5/5
f 6/11/6 5/10/6 1/1/6 2/13/6
o Icosphere
v 0.000000 3.886065 0.000000
v 0.723607 4.438845 0.525725
v -0.276388 4.438845 0.850649
v -0.894426 4.438849 0.000000
v -0.276388 4.438845 -0.850649
v 0.723607 4.438845 -0.525725
v 0.276388 5.333284 0.850649
v -0.723607 5.333284 0.525725
v -0.723607 5.333284 -0.525725
v 0.276388 5.333284 -0.850649
v 0.894426 5.333280 0.000000
v 0.000000 5.886065 0.000000
v -0.162456 4.035410 0.499995
v 0.425323 4.035410 0.309011
v 0.262869 4.360327 0.809012
v 0.850648 4.360329 0.000000
v 0.425323 4.035410 -0.309011
v -0.525730 4.035413 0.000000
v -0.688189 4.360328 0.499997
v -0.162456 4.035410 -0.499995
v -0.688189 4.360328 -0.499997
v 0.262869 4.360327 -0.809012
v 0.951058 4.886065 0.309013
v 0.951058 4.886065 -0.309013
v 0.000000 4.886065 1.000000
v 0.587786 4.886065 0.809017
v -0.951058 4.886065 0.309013
v -0.587786 4.886065 0.809017
v -0.587786 4.886065 -0.809017
v -0.951058 4.886065 -0.309013
v 0.587786 4.886065 -0.809017
v 0.000000 4.886065 -1.000000
v 0.688189 5.411801 0.499997
v -0.262869 5.411802 0.809012
v -0.850648 5.411800 0.000000
v -0.262869 5.411802 -0.809012
v 0.688189 5.411801 -0.499997
v 0.162456 5.736719 0.499995
v 0.525730 5.736716 0.000000
v -0.425323 5.736719 0.309011
v -0.425323 5.736719 -0.309011
v 0.162456 5.736719 -0.499995
vt 0.818181 0.000000
vt 0.772726 0.078731
vt 0.863635 0.078731
vt 0.727272 0.157461
vt 0.681818 0.078731
vt 0.636363 0.157461
vt 0.090909 0.000000
vt 0.045454 0.078731
vt 0.136363 0.078731
vt 0.272727 0.000000
vt 0.227273 0.078731
vt 0.318182 0.078731
vt 0.454545 0.000000
vt 0.409090 0.078731
vt 0.500000 0.078731
vt 0.681818 0.236191
vt 0.909090 0.157461
vt 0.818181 0.157461
vt 0.863635 0.236191
vt 0.181818 0.157461
vt 0.090909 0.157461
vt 0.136363 0.236191
vt 0.363636 0.157461
vt 0.272727 0.157461
vt 0.318182 0.236191
vt 0.545454 0.157461
vt 0.454545 0.157461
vt 0.500000 0.236191
vt 0.772726 0.236191
vt 0.954545 0.236191
vt 0.227273 0.236191
vt 0.409090 0.236191
vt 0.590909 0.236191
vt 0.818181 0.314921
vt 0.727272 0.314921
vt 0.772726 0.393651
vt 1.000000 0.314921
vt 0.909091 0.314921
vt 0.954545 0.393651
vt 0.272727 0.314921
vt 0.181818 0.314921
vt 0.227273 0.393651
vt 0.454545 0.314921
vt 0.363636 0.314921
vt 0.409090 0.393651
vt 0.636363 0.314921
vt 0.545454 0.314921
vt 0.590909 0.393651
vt 0.500000 0.393651
vt 0.545454 0.472382
vt 0.318182 0.393651
vt 0.363636 0.472382
vt 0.136363 0.393651
vt 0.181818 0.472382
vt 0.090909 0.314921
vt 0.863635 0.393651
vt 0.909090 0.472382
vt 0.681818 0.393651
vt 0.727272 0.472382
vt 0.045454 0.236191
vt 0.000000 0.157461
vt 0.590909 0.078731
vt 0.636363 0.000000
vn 0.1024 -0.9435 0.3151
vn 0.7002 -0.6617 0.2680
vn -0.2680 -0.9435 0.1947
vn -0.2680 -0.9435 -0.1947
vn 0.1024 -0.9435 -0.3151
vn 0.9050 -0.3304 0.2680
vn 0.0247 -0.3304 0.9435
vn -0.8897 -0.3304 0.3151
vn -0.5746 -0.3304 -0.7488
vn 0.5346 -0.3304 -0.7779
vn 0.8026 -0.1256 0.5831
vn -0.3066 -0.1256 0.9435
vn -0.9921 -0.1256 0.0000
vn -0.3066 -0.1256 -0.9435
vn 0.8026 -0.1256 -0.5831
vn 0.4089 0.6617 0.6284
vn -0.4713 0.6617 0.5831
vn -0.7002 0.6617 -0.2680
vn 0.0385 0.6617 -0.7488
vn 0.7240 0.6617 -0.1947
vn 0.2680 0.9435 -0.1947
vn 0.4911 0.7947 -0.3568
vn 0.4089 0.6617 -0.6284
vn -0.1024 0.9435 -0.3151
vn -0.1876 0.7947 -0.5773
vn -0.4713 0.6617 -0.5831
vn -0.3313 0.9435 0.0000
vn -0.6071 0.7947 0.0000
vn -0.7002 0.6617 0.2680
vn -0.1024 0.9435 0.3151
vn -0.1876 0.7947 0.5773
vn 0.0385 0.6617 0.7488
vn 0.2680 0.9435 0.1947
vn 0.4911 0.7947 0.3568
vn 0.7240 0.6617 0.1947
vn 0.8897 0.3304 -0.3151
vn 0.7947 0.1876 -0.5773
vn 0.5746 0.3304 -0.7488
vn -0.0247 0.3304 -0.9435
vn -0.3035 0.1876 -0.9342
vn -0.5346 0.3304 -0.7779
vn -0.9050 0.3304 -0.2680
vn -0.9822 0.1876 0.0000
vn -0.9050 0.3304 0.2680
vn -0.5346 0.3304 0.7779
vn -0.3035 0.1876 0.9342
vn -0.0247 0.3304 0.9435
vn 0.5746 0.3304 0.7488
vn 0.7947 0.1876 0.5773
vn 0.8897 0.3304 0.3151
vn 0.3066 0.1256 -0.9435
vn 0.3035 -0.1876 -0.9342
vn 0.0247 -0.3304 -0.9435
vn -0.8026 0.1256 -0.5831
vn -0.7947 -0.1876 -0.5773
vn -0.8897 -0.3304 -0.3151
vn -0.8026 0.1256 0.5831
vn -0.7947 -0.1876 0.5773
vn -0.5746 -0.3304 0.7488
vn 0.3066 0.1256 0.9435
vn 0.3035 -0.1876 0.9342
vn 0.5346 -0.3304 0.7779
vn 0.9921 0.1256 0.0000
vn 0.9822 -0.1876 0.0000
vn 0.9050 -0.3304 -0.2680
vn 0.4713 -0.6617 -0.5831
vn 0.1876 -0.7947 -0.5773
vn -0.0385 -0.6617 -0.7488
vn -0.4089 -0.6617 -0.6284
vn -0.4911 -0.7947 -0.3568
vn -0.7240 -0.6617 -0.1947
vn -0.7240 -0.6617 0.1947
vn -0.4911 -0.7947 0.3568
vn -0.4089 -0.6617 0.6284
vn 0.7002 -0.6617 -0.2680
vn 0.6071 -0.7947 0.0000
vn 0.3313 -0.9435 0.0000
vn -0.0385 -0.6617 0.7488
vn 0.1876 -0.7947 0.5773
vn 0.4713 -0.6617 0.5831
usemtl Material.003
s off
f 9/15/7 22/16/7 21/17/7
f 10/18/8 22/19/8 24/20/8
f 9/21/9 21/22/9 26/23/9
f 9/24/10 26/25/10 28/26/10
f 9/27/11 28/28/11 25/29/11
f 10/18/12 24/20/12 31/30/12
f 11/31/13 23/32/13 33/33/13
f 12/34/14 27/35/14 35/36/14
f 13/37/15 29/38/15 37/39/15
f 14/40/16 30/41/16 39/42/16
f 10/18/17 31/30/17 34/43/17
f 11/31/18 33/33/18 36/44/18
f 12/34/19 35/36/19 38/45/19
f 13/37/20 37/39/20 40/46/20
f 14/40/21 39/42/21 32/47/21
f 15/48/22 41/49/22 46/50/22
f 16/51/23 42/52/23 48/53/23
f 17/54/24 43/55/24 49/56/24
f 18/57/25 44/58/25 50/59/25
f 19/60/26 45/61/26 47/62/26
f 47/62/27 50/63/27 20/64/27
f 47/62/28 45/61/28 50/63/28
f 45/61/29 18/57/29 50/63/29
f 50/59/30 49/65/30 20/66/30
f 50/59/31 44/58/31 49/65/31
f 44/58/32 17/54/32 49/65/32
f 49/56/33 48/67/33 20/68/33
f 49/56/34 43/55/34 48/67/34
f 43/55/35 16/69/35 48/67/35
f 48/53/36 46/70/36 20/71/36
f 48/53/37 42/52/37 46/70/37
f 42/52/38 15/48/38 46/70/38
f 46/50/39 47/72/39 20/73/39
f 46/50/40 41/49/40 47/72/40
f 41/49/41 19/60/41 47/72/41
f 32/47/42 45/61/42 19/60/42
f 32/47/43 39/42/43 45/61/43
f 39/42/44 18/57/44 45/61/44
f 40/46/45 44/58/45 18/57/45
f 40/46/46 37/39/46 44/58/46
f 37/39/47 17/54/47 44/58/47
f 38/45/48 43/55/48 17/54/48
f 38/45/49 35/36/49 43/55/49
f 35/36/50 16/69/50 43/55/50
f 36/44/51 42/52/51 16/51/51
f 36/44/52 33/33/52 42/52/52
f 33/33/53 15/48/53 42/52/53
f 34/43/54 41/49/54 15/48/54
f 34/43/55 31/30/55 41/49/55
f 31/30/56 19/60/56 41/49/56
f 39/42/57 40/46/57 18/57/57
f 39/42/58 30/41/58 40/46/58
f 30/41/59 13/37/59 40/46/59
f 37/39/60 38/45/60 17/54/60
f 37/39/61 29/38/61 38/45/61
f 29/38/62 12/34/62 38/45/62
f 35/36/63 36/74/63 16/69/63
f 35/36/64 27/35/64 36/74/64
f 27/35/65 11/75/65 36/74/65
f 33/33/66 34/43/66 15/48/66
f 33/33/67 23/32/67 34/43/67
f 23/32/68 10/18/68 34/43/68
f 31/30/69 32/47/69 19/60/69
f 31/30/70 24/20/70 32/47/70
f 24/20/71 14/40/71 32/47/71
f 25/29/72 30/41/72 14/40/72
f 25/29/73 28/28/73 30/41/73
f 28/28/74 13/37/74 30/41/74
f 28/26/75 29/38/75 13/37/75
f 28/26/76 26/25/76 29/38/76
f 26/25/77 12/34/77 29/38/77
f 26/23/78 27/35/78 12/34/78
f 26/23/79 21/22/79 27/35/79
f 21/22/80 11/75/80 27/35/80
f 24/20/81 25/76/81 14/40/81
f 24/20/82 22/19/82 25/76/82
f 22/19/83 9/77/83 25/76/83
f 21/17/84 23/32/84 11/31/84
f 21/17/85 22/16/85 23/32/85
f 22/16/86 10/18/86 23/32/86
o Icosphere.001
v 0.000000 2.893835 0.000000
v 1.364099 3.446615 0.991064
v -0.521029 3.446615 1.603591
v -1.686116 3.446619 0.000000
v -0.521029 3.446615 -1.603591
v 1.364099 3.446615 -0.991064
v 0.521029 4.341055 1.603591
v -1.364099 4.341054 0.991064
v -1.364099 4.341054 -0.991064
v 0.521029 4.341055 -1.603591
v 1.686116 4.341051 0.000000
v 0.000000 4.893835 0.000000
v -0.306251 3.043180 0.942560
v 0.801792 3.043181 0.582529
v 0.495544 3.368097 1.525098
v 1.603588 3.368099 0.000000
v 0.801792 3.043181 -0.582529
v -0.991073 3.043183 0.000000
v -1.297332 3.368099 0.942563
v -0.306251 3.043180 -0.942560
v -1.297332 3.368099 -0.942563
v 0.495544 3.368097 -1.525098
v 1.792875 3.893835 0.582531
v 1.792875 3.893835 -0.582531
v 0.000000 3.893835 1.885137
v 1.108057 3.893835 1.525108
v -1.792875 3.893835 0.582531
v -1.108057 3.893835 1.525108
v -1.108057 3.893835 -1.525108
v -1.792875 3.893835 -0.582531
v 1.108057 3.893835 -1.525108
v 0.000000 3.893835 -1.885137
v 1.297332 4.419571 0.942563
v -0.495544 4.419572 1.525098
v -1.603588 4.419571 0.000000
v -0.495544 4.419572 -1.525098
v 1.297332 4.419571 -0.942563
v 0.306251 4.744489 0.942560
v 0.991073 4.744486 0.000000
v -0.801792 4.744489 0.582529
v -0.801792 4.744489 -0.582529
v 0.306251 4.744489 -0.942560
vt 0.818181 0.000000
vt 0.772726 0.078731
vt 0.863635 0.078731
vt 0.727272 0.157461
vt 0.681818 0.078731
vt 0.636363 0.157461
vt 0.090909 0.000000
vt 0.045454 0.078731
vt 0.136363 0.078731
vt 0.272727 0.000000
vt 0.227273 0.078731
vt 0.318182 0.078731
vt 0.454545 0.000000
vt 0.409090 0.078731
vt 0.500000 0.078731
vt 0.681818 0.236191
vt 0.909090 0.157461
vt 0.818181 0.157461
vt 0.863635 0.236191
vt 0.181818 0.157461
vt 0.090909 0.157461
vt 0.136363 0.236191
vt 0.363636 0.157461
vt 0.272727 0.157461
vt 0.318182 0.236191
vt 0.545454 0.157461
vt 0.454545 0.157461
vt 0.500000 0.236191
vt 0.772726 0.236191
vt 0.954545 0.236191
vt 0.227273 0.236191
vt 0.409090 0.236191
vt 0.590909 0.236191
vt 0.818181 0.314921
vt 0.727272 0.314921
vt 0.772726 0.393651
vt 1.000000 0.314921
vt 0.909091 0.314921
vt 0.954545 0.393651
vt 0.272727 0.314921
vt 0.181818 0.314921
vt 0.227273 0.393651
vt 0.454545 0.314921
vt 0.363636 0.314921
vt 0.409090 0.393651
vt 0.636363 0.314921
vt 0.545454 0.314921
vt 0.590909 0.393651
vt 0.500000 0.393651
vt 0.545454 0.472382
vt 0.318182 0.393651
vt 0.363636 0.472382
vt 0.136363 0.393651
vt 0.181818 0.472382
vt 0.090909 0.314921
vt 0.863635 0.393651
vt 0.909090 0.472382
vt 0.681818 0.393651
vt 0.727272 0.472382
vt 0.045454 0.236191
vt 0.000000 0.157461
vt 0.590909 0.078731
vt 0.636363 0.000000
vn 0.0566 -0.9831 0.1742
vn 0.4811 -0.8571 0.1842
vn -0.1481 -0.9831 0.1076
vn -0.1481 -0.9831 -0.1076
vn 0.0566 -0.9831 -0.1742
vn 0.8003 -0.5508 0.2370
vn 0.0219 -0.5508 0.8344
vn -0.7868 -0.5508 0.2786
vn -0.5081 -0.5508 -0.6622
vn 0.4727 -0.5508 -0.6879
vn 0.7869 -0.2322 0.5717
vn -0.3006 -0.2322 0.9251
vn -0.9727 -0.2322 0.0000
vn -0.3006 -0.2322 -0.9251
vn 0.7869 -0.2322 -0.5717
vn 0.2810 0.8571 0.4318
vn -0.3238 0.8571 0.4007
vn -0.4811 0.8571 -0.1842
vn 0.0265 0.8571 -0.5145
vn 0.4975 0.8571 -0.1338
vn 0.1481 0.9831 -0.1076
vn 0.3038 0.9268 -0.2208
vn 0.2810 0.8571 -0.4318
vn -0.0566 0.9831 -0.1742
vn -0.1161 0.9268 -0.3572
vn -0.3238 0.8571 -0.4007
vn -0.1831 0.9831 0.0000
vn -0.3756 0.9268 0.0000
vn -0.4811 0.8571 0.1842
vn -0.0566 0.9831 0.1742
vn -0.1161 0.9268 0.3572
vn 0.0265 0.8571 0.5145
vn 0.1481 0.9831 0.1076
vn 0.3038 0.9268 0.2208
vn 0.4975 0.8571 0.1338
vn 0.7868 0.5508 -0.2786
vn 0.7612 0.3387 -0.5530
vn 0.5081 0.5508 -0.6622
vn -0.0219 0.5508 -0.8344
vn -0.2907 0.3388 -0.8948
vn -0.4727 0.5508 -0.6879
vn -0.8003 0.5508 -0.2370
vn -0.9409 0.3388 0.0000
vn -0.8003 0.5508 0.2370
vn -0.4727 0.5508 0.6879
vn -0.2907 0.3388 0.8948
vn -0.0219 0.5508 0.8344
vn 0.5081 0.5508 0.6622
vn 0.7612 0.3387 0.5530
vn 0.7868 0.5508 0.2786
vn 0.3006 0.2322 -0.9251
vn 0.2907 -0.3388 -0.8948
vn 0.0219 -0.5508 -0.8344
vn -0.7869 0.2322 -0.5717
vn -0.7612 -0.3387 -0.5530
vn -0.7868 -0.5508 -0.2786
vn -0.7869 0.2322 0.5717
vn -0.7612 -0.3387 0.5530
vn -0.5081 -0.5508 0.6622
vn 0.3006 0.2322 0.9251
vn 0.2907 -0.3388 0.8948
vn 0.4727 -0.5508 0.6879
vn 0.9727 0.2322 0.0000
vn 0.9409 -0.3388 0.0000
vn 0.8003 -0.5508 -0.2370
vn 0.3238 -0.8571 -0.4007
vn 0.1161 -0.9268 -0.3572
vn -0.0265 -0.8571 -0.5145
vn -0.2810 -0.8571 -0.4318
vn -0.3038 -0.9268 -0.2208
vn -0.4975 -0.8571 -0.1338
vn -0.4975 -0.8571 0.1338
vn -0.3038 -0.9268 0.2208
vn -0.2810 -0.8571 0.4318
vn 0.4811 -0.8571 -0.1842
vn 0.3756 -0.9268 0.0000
vn 0.1831 -0.9831 0.0000
vn -0.0265 -0.8571 0.5145
vn 0.1161 -0.9268 0.3572
vn 0.3238 -0.8571 0.4007
usemtl Material.001
s off
f 51/78/87 64/79/87 63/80/87
f 52/81/88 64/82/88 66/83/88
f 51/84/89 63/85/89 68/86/89
f 51/87/90 68/88/90 70/89/90
f 51/90/91 70/91/91 67/92/91
f 52/81/92 66/83/92 73/93/92
f 53/94/93 65/95/93 75/96/93
f 54/97/94 69/98/94 77/99/94
f 55/100/95 71/101/95 79/102/95
f 56/103/96 72/104/96 81/105/96
f 52/81/97 73/93/97 76/106/97
f 53/94/98 75/96/98 78/107/98
f 54/97/99 77/99/99 80/108/99
f 55/100/100 79/102/100 82/109/100
f 56/103/101 81/105/101 74/110/101
f 57/111/102 83/112/102 88/113/102
f 58/114/103 84/115/103 90/116/103
f 59/117/104 85/118/104 91/119/104
f 60/120/105 86/121/105 92/122/105
f 61/123/106 87/124/106 89/125/106
f 89/125/107 92/126/107 62/127/107
f 89/125/108 87/124/108 92/126/108
f 87/124/109 60/120/109 92/126/109
f 92/122/110 91/128/110 62/129/110
f 92/122/111 86/121/111 91/128/111
f 86/121/112 59/117/112 91/128/112
f 91/119/113 90/130/113 62/131/113
f 91/119/114 85/118/114 90/130/114
f 85/118/115 58/132/115 90/130/115
f 90/116/116 88/133/116 62/134/116
f 90/116/117 84/115/117 88/133/117
f 84/115/118 57/111/118 88/133/118
f 88/113/119 89/135/119 62/136/119
f 88/113/120 83/112/120 89/135/120
f 83/112/121 61/123/121 89/135/121
f 74/110/122 87/124/122 61/123/122
f 74/110/123 81/105/123 87/124/123
f 81/105/124 60/120/124 87/124/124
f 82/109/125 86/121/125 60/120/125
f 82/109/126 79/102/126 86/121/126
f 79/102/127 59/117/127 86/121/127
f 80/108/128 85/118/128 59/117/128
f 80/108/129 77/99/129 85/118/129
f 77/99/130 58/132/130 85/118/130
f 78/107/131 84/115/131 58/114/131
f 78/107/132 75/96/132 84/115/132
f 75/96/133 57/111/133 84/115/133
f 76/106/134 83/112/134 57/111/134
f 76/106/135 73/93/135 83/112/135
f 73/93/136 61/123/136 83/112/136
f 81/105/137 82/109/137 60/120/137
f 81/105/138 72/104/138 82/109/138
f 72/104/139 55/100/139 82/109/139
f 79/102/140 80/108/140 59/117/140
f 79/102/141 71/101/141 80/108/141
f 71/101/142 54/97/142 80/108/142
f 77/99/143 78/137/143 58/132/143
f 77/99/144 69/98/144 78/137/144
f 69/98/145 53/138/145 78/137/145
f 75/96/146 76/106/146 57/111/146
f 75/96/147 65/95/147 76/106/147
f 65/95/148 52/81/148 76/106/148
f 73/93/149 74/110/149 61/123/149
f 73/93/150 66/83/150 74/110/150
f 66/83/151 56/103/151 74/110/151
f 67/92/152 72/104/152 56/103/152
f 67/92/153 70/91/153 72/104/153
f 70/91/154 55/100/154 72/104/154
f 70/89/155 71/101/155 55/100/155
f 70/89/156 68/88/156 71/101/156
f 68/88/157 54/97/157 71/101/157
f 68/86/158 69/98/158 54/97/158
f 68/86/159 63/85/159 69/98/159
f 63/85/160 53/138/160 69/98/160
f 66/83/161 67/139/161 56/103/161
f 66/83/162 64/82/162 67/139/162
f 64/82/163 51/140/163 67/139/163
f 63/80/164 65/95/164 53/94/164
f 63/80/165 64/79/165 65/95/165
f 64/79/166 52/81/166 65/95/166
o Icosphere.002
v 0.000000 1.598502 0.000000
v 1.723279 2.151283 1.252021
v -0.658221 2.151283 2.025831
v -2.130086 2.151287 0.000000
v -0.658221 2.151283 -2.025831
v 1.723279 2.151283 -1.252021
v 0.658221 3.045722 2.025831
v -1.723279 3.045722 1.252021
v -1.723279 3.045722 -1.252021
v 0.658221 3.045722 -2.025831
v 2.130086 3.045718 0.000000
v 0.000000 3.598502 0.000000
v -0.386890 1.747848 1.190744
v 1.012911 1.747848 0.735914
v 0.626025 2.072765 1.926670
v 2.025827 2.072767 0.000000
v 1.012911 1.747848 -0.735914
v -1.252031 1.747851 0.000000
v -1.638931 2.072766 1.190748
v -0.386890 1.747848 -1.190744
v -1.638931 2.072766 -1.190748
v 0.626025 2.072765 -1.926670
v 2.264955 2.598502 0.735917
v 2.264955 2.598502 -0.735917
v 0.000000 2.598502 2.381511
v 1.399818 2.598502 1.926682
v -2.264955 2.598502 0.735917
v -1.399818 2.598502 1.926682
v -1.399818 2.598502 -1.926682
v -2.264955 2.598502 -0.735917
v 1.399818 2.598502 -1.926682
v 0.000000 2.598502 -2.381511
v 1.638931 3.124238 1.190748
v -0.626025 3.124240 1.926670
v -2.025827 3.124238 0.000000
v -0.626025 3.124240 -1.926670
v 1.638931 3.124238 -1.190748
v 0.386890 3.449157 1.190744
v 1.252031 3.449154 0.000000
v -1.012911 3.449157 0.735914
v -1.012911 3.449157 -0.735914
v 0.386890 3.449157 -1.190744
vt 0.818181 0.000000
vt 0.772726 0.078731
vt 0.863635 0.078731
vt 0.727272 0.157461
vt 0.681818 0.078731
vt 0.636363 0.157461
vt 0.090909 0.000000
vt 0.045454 0.078731
vt 0.136363 0.078731
vt 0.272727 0.000000
vt 0.227273 0.078731
vt 0.318182 0.078731
vt 0.454545 0.000000
vt 0.409090 0.078731
vt 0.500000 0.078731
vt 0.681818 0.236191
vt 0.909090 0.157461
vt 0.818181 0.157461
vt 0.863635 0.236191
vt 0.181818 0.157461
vt 0.090909 0.157461
vt 0.136363 0.236191
vt 0.363636 0.157461
vt 0.272727 0.157461
vt 0.318182 0.236191
vt 0.545454 0.157461
vt 0.454545 0.157461
vt 0.500000 0.236191
vt 0.772726 0.236191
vt 0.954545 0.236191
vt 0.227273 0.236191
vt 0.409090 0.236191
vt 0.590909 0.236191
vt 0.818181 0.314921
vt 0.727272 0.314921
vt 0.772726 0.393651
vt 1.000000 0.314921
vt 0.909091 0.314921
vt 0.954545 0.393651
vt 0.272727 0.314921
vt 0.181818 0.314921
vt 0.227273 0.393651
vt 0.454545 0.314921
vt 0.363636 0.314921
vt 0.409090 0.393651
vt 0.636363 0.314921
vt 0.545454 0.314921
vt 0.590909 0.393651
vt 0.500000 0.393651
vt 0.545454 0.472382
vt 0.318182 0.393651
vt 0.363636 0.472382
vt 0.136363 0.393651
vt 0.181818 0.472382
vt 0.090909 0.314921
vt 0.863635 0.393651
vt 0.909090 0.472382
vt 0.681818 0.393651
vt 0.727272 0.472382
vt 0.045454 0.236191
vt 0.000000 0.157461
vt 0.590909 0.078731
vt 0.636363 0.000000
vn 0.0451 -0.9893 0.1387
vn 0.4012 -0.9030 0.1536
vn -0.1180 -0.9893 0.0857
vn -0.1180 -0.9893 -0.0857
vn 0.0451 -0.9893 -0.1387
vn 0.7365 -0.6403 0.2181
vn 0.0201 -0.6403 0.7678
vn -0.7240 -0.6403 0.2564
vn -0.4676 -0.6403 -0.6094
vn 0.4350 -0.6403 -0.6330
vn 0.7746 -0.2887 0.5627
vn -0.2959 -0.2887 0.9106
vn -0.9574 -0.2887 0.0000
vn -0.2959 -0.2887 -0.9106
vn 0.7746 -0.2887 -0.5627
vn 0.2343 0.9030 0.3601
vn -0.2701 0.9030 0.3341
vn -0.4012 0.9030 -0.1536
vn 0.0221 0.9030 -0.4291
vn 0.4149 0.9030 -0.1116
vn 0.1180 0.9893 -0.0857
vn 0.2471 0.9522 -0.1795
vn 0.2343 0.9030 -0.3601
vn -0.0451 0.9893 -0.1387
vn -0.0944 0.9522 -0.2905
vn -0.2701 0.9030 -0.3341
vn -0.1459 0.9893 0.0000
vn -0.3054 0.9522 0.0000
vn -0.4012 0.9030 0.1536
vn -0.0451 0.9893 0.1387
vn -0.0944 0.9522 0.2905
vn 0.0221 0.9030 0.4291
vn 0.1180 0.9893 0.0857
vn 0.2471 0.9522 0.1795
vn 0.4149 0.9030 0.1116
vn 0.7240 0.6403 -0.2564
vn 0.7364 0.4140 -0.5350
vn 0.4676 0.6403 -0.6094
vn -0.0201 0.6403 -0.7678
vn -0.2813 0.4140 -0.8657
vn -0.4350 0.6403 -0.6330
vn -0.7365 0.6403 -0.2181
vn -0.9103 0.4140 0.0000
vn -0.7365 0.6403 0.2181
vn -0.4350 0.6403 0.6330
vn -0.2813 0.4140 0.8657
vn -0.0201 0.6403 0.7678
vn 0.4676 0.6403 0.6094
vn 0.7364 0.4140 0.5350
vn 0.7240 0.6403 0.2564
vn 0.2959 0.2887 -0.9106
vn 0.2813 -0.4140 -0.8657
vn 0.0201 -0.6403 -0.7678
vn -0.7746 0.2887 -0.5627
vn -0.7364 -0.4140 -0.5350
vn -0.7240 -0.6403 -0.2564
vn -0.7746 0.2887 0.5627
vn -0.7364 -0.4140 0.5350
vn -0.4676 -0.6403 0.6094
vn 0.2959 0.2887 0.9106
vn 0.2813 -0.4140 0.8657
vn 0.4350 -0.6403 0.6330
vn 0.9574 0.2887 0.0000
vn 0.9103 -0.4140 0.0000
vn 0.7365 -0.6403 -0.2181
vn 0.2701 -0.9030 -0.3341
vn 0.0944 -0.9522 -0.2905
vn -0.0221 -0.9030 -0.4291
vn -0.2343 -0.9030 -0.3601
vn -0.2471 -0.9522 -0.1795
vn -0.4149 -0.9030 -0.1116
vn -0.4149 -0.9030 0.1116
vn -0.2471 -0.9522 0.1795
vn -0.2343 -0.9030 0.3601
vn 0.4012 -0.9030 -0.1536
vn 0.3054 -0.9522 0.0000
vn 0.1459 -0.9893 0.0000
vn -0.0221 -0.9030 0.4291
vn 0.0944 -0.9522 0.2905
vn 0.2701 -0.9030 0.3341
usemtl Material.002
s off
f 93/141/167 106/142/167 105/143/167
f 94/144/168 106/145/168 108/146/168
f 93/147/169 105/148/169 110/149/169
f 93/150/170 110/151/170 112/152/170
f 93/153/171 112/154/171 109/155/171
f 94/144/172 108/146/172 115/156/172
f 95/157/173 107/158/173 117/159/173
f 96/160/174 111/161/174 119/162/174
f 97/163/175 113/164/175 121/165/175
f 98/166/176 114/167/176 123/168/176
f 94/144/177 115/156/177 118/169/177
f 95/157/178 117/159/178 120/170/178
f 96/160/179 119/162/179 122/171/179
f 97/163/180 121/165/180 124/172/180
f 98/166/181 123/168/181 116/173/181
f 99/174/182 125/175/182 130/176/182
f 100/177/183 126/178/183 132/179/183
f 101/180/184 127/181/184 133/182/184
f 102/183/185 128/184/185 134/185/185
f 103/186/186 129/187/186 131/188/186
f 131/188/187 134/189/187 104/190/187
f 131/188/188 129/187/188 134/189/188
f 129/187/189 102/183/189 134/189/189
f 134/185/190 133/191/190 104/192/190
f 134/185/191 128/184/191 133/191/191
f 128/184/192 101/180/192 133/191/192
f 133/182/193 132/193/193 104/194/193
f 133/182/194 127/181/194 132/193/194
f 127/181/195 100/195/195 132/193/195
f 132/179/196 130/196/196 104/197/196
f 132/179/197 126/178/197 130/196/197
f 126/178/198 99/174/198 130/196/198
f 130/176/199 131/198/199 104/199/199
f 130/176/200 125/175/200 131/198/200
f 125/175/201 103/186/201 131/198/201
f 116/173/202 129/187/202 103/186/202
f 116/173/203 123/168/203 129/187/203
f 123/168/204 102/183/204 129/187/204
f 124/172/205 128/184/205 102/183/205
f 124/172/206 121/165/206 128/184/206
f 121/165/207 101/180/207 128/184/207
f 122/171/208 127/181/208 101/180/208
f 122/171/209 119/162/209 127/181/209
f 119/162/210 100/195/210 127/181/210
f 120/170/211 126/178/211 100/177/211
f 120/170/212 117/159/212 126/178/212
f 117/159/213 99/174/213 126/178/213
f 118/169/214 125/175/214 99/174/214
f 118/169/215 115/156/215 125/175/215
f 115/156/216 103/186/216 125/175/216
f 123/168/217 124/172/217 102/183/217
f 123/168/218 114/167/218 124/172/218
f 114/167/219 97/163/219 124/172/219
f 121/165/220 122/171/220 101/180/220
f 121/165/221 113/164/221 122/171/221
f 113/164/222 96/160/222 122/171/222
f 119/162/223 120/200/223 100/195/223
f 119/162/224 111/161/224 120/200/224
f 111/161/225 95/201/225 120/200/225
f 117/159/226 118/169/226 99/174/226
f 117/159/227 107/158/227 118/169/227
f 107/158/228 94/144/228 118/169/228
f 115/156/229 116/173/229 103/186/229
f 115/156/230 108/146/230 116/173/230
f 108/146/231 98/166/231 116/173/231
f 109/155/232 114/167/232 98/166/232
f 109/155/233 112/154/233 114/167/233
f 112/154/234 97/163/234 114/167/234
f 112/152/235 113/164/235 97/163/235
f 112/152/236 110/151/236 113/164/236
f 110/151/237 96/160/237 113/164/237
f 110/149/238 111/161/238 96/160/238
f 110/149/239 105/148/239 111/161/239
f 105/148/240 95/201/240 111/161/240
f 108/146/241 109/202/241 98/166/241
f 108/146/242 106/145/242 109/202/242
f 106/145/243 93/203/243 109/202/243
f 105/143/244 107/158/244 95/157/244
f 105/143/245 106/142/245 107/158/245
f 106/142/246 94/144/246 107/158/246
