# Blender v2.82 (sub 7) OBJ File: 'tree.blend'
# www.blender.org
mtllib tree.mtl
o Cone_Cone.001
v 0.000000 5.543299 -1.000000
v 0.587785 5.543299 -0.809017
v 0.951057 5.543299 -0.309017
v 0.951056 5.543299 0.309017
v 0.587785 5.543299 0.809017
v -0.000000 5.543299 1.000000
v -0.587785 5.543299 0.809017
v 0.000000 7.543299 0.000000
v -0.951056 5.543299 0.309017
v -0.951056 5.543299 -0.309017
v -0.587785 5.543299 -0.809017
vt 0.250000 0.490000
vt 0.250000 0.250000
vt 0.391068 0.444164
vt 0.478254 0.324164
vt 0.478254 0.175836
vt 0.391068 0.055836
vt 0.250000 0.010000
vt 0.108932 0.055836
vt 0.021746 0.175836
vt 0.021746 0.324164
vt 0.108932 0.444164
vt 0.750000 0.490000
vt 0.891068 0.444164
vt 0.978254 0.324164
vt 0.978254 0.175836
vt 0.891068 0.055836
vt 0.750000 0.010000
vt 0.608932 0.055836
vt 0.521746 0.175836
vt 0.521746 0.324164
vt 0.608932 0.444164
vn 0.2791 0.4294 -0.8589
vn 0.7306 0.4294 -0.5308
vn 0.9031 0.4294 0.0000
vn 0.7306 0.4294 0.5308
vn 0.2791 0.4294 0.8589
vn -0.2791 0.4294 0.8589
vn -0.7306 0.4294 0.5308
vn -0.9031 0.4294 0.0000
vn -0.7306 0.4294 -0.5308
vn -0.2791 0.4294 -0.8589
vn 0.0000 -1.0000 -0.0000
usemtl Material.002
s off
f 1/1/1 8/2/1 2/3/1
f 2/3/2 8/2/2 3/4/2
f 3/4/3 8/2/3 4/5/3
f 4/5/4 8/2/4 5/6/4
f 5/6/5 8/2/5 6/7/5
f 6/7/6 8/2/6 7/8/6
f 7/8/7 8/2/7 9/9/7
f 9/9/8 8/2/8 10/10/8
f 10/10/9 8/2/9 11/11/9
f 11/11/10 8/2/10 1/1/10
f 1/12/11 2/13/11 3/14/11 4/15/11 5/16/11 6/17/11 7/18/11 9/19/11 10/20/11 11/21/11
o Cone.001_Cone.002
v 0.000000 3.682259 -1.753362
v 1.030600 3.682259 -1.418500
v 1.667547 3.682259 -0.541819
v 1.667547 3.682259 0.541819
v 1.030600 3.682259 1.418500
v -0.000000 3.682259 1.753362
v -1.030601 3.682259 1.418500
v 0.000000 7.188983 0.000000
v -1.667547 3.682259 0.541819
v -1.667547 3.682259 -0.541819
v -1.030600 3.682259 -1.418500
vt 0.250000 0.490000
vt 0.250000 0.250000
vt 0.391068 0.444164
vt 0.478254 0.324164
vt 0.478254 0.175836
vt 0.391068 0.055836
vt 0.250000 0.010000
vt 0.108932 0.055836
vt 0.021746 0.175836
vt 0.021746 0.324164
vt 0.108932 0.444164
vt 0.750000 0.490000
vt 0.891068 0.444164
vt 0.978254 0.324164
vt 0.978254 0.175836
vt 0.891068 0.055836
vt 0.750000 0.010000
vt 0.608932 0.055836
vt 0.521746 0.175836
vt 0.521746 0.324164
vt 0.608932 0.444164
vn 0.2791 0.4294 -0.8589
vn 0.7306 0.4294 -0.5308
vn 0.9031 0.4294 0.0000
vn 0.7306 0.4294 0.5308
vn 0.2791 0.4294 0.8589
vn -0.2791 0.4294 0.8589
vn -0.7306 0.4294 0.5308
vn -0.9031 0.4294 0.0000
vn -0.7306 0.4294 -0.5308
vn -0.2791 0.4294 -0.8589
vn 0.0000 -1.0000 -0.0000
usemtl Material.002
s off
f 12/22/12 19/23/12 13/24/12
f 13/24/13 19/23/13 14/25/13
f 14/25/14 19/23/14 15/26/14
f 15/26/15 19/23/15 16/27/15
f 16/27/16 19/23/16 17/28/16
f 17/28/17 19/23/17 18/29/17
f 18/29/18 19/23/18 20/30/18
f 20/30/19 19/23/19 21/31/19
f 21/31/20 19/23/20 22/32/20
f 22/32/21 19/23/21 12/22/21
f 12/33/22 13/34/22 14/35/22 15/36/22 16/37/22 17/38/22 18/39/22 20/40/22 21/41/22 22/42/22
o Cone.002_Cone.003
v 0.000000 2.192828 -2.108538
v 1.239368 2.192828 -1.705843
v 2.005339 2.192828 -0.651574
v 2.005339 2.192828 0.651574
v 1.239368 2.192828 1.705844
v -0.000000 2.192828 2.108538
v -1.239368 2.192828 1.705843
v 0.000000 6.409905 0.000000
v -2.005339 2.192828 0.651574
v -2.005339 2.192828 -0.651574
v -1.239367 2.192828 -1.705844
vt 0.250000 0.490000
vt 0.250000 0.250000
vt 0.391068 0.444164
vt 0.478254 0.324164
vt 0.478254 0.175836
vt 0.391068 0.055836
vt 0.250000 0.010000
vt 0.108932 0.055836
vt 0.021746 0.175836
vt 0.021746 0.324164
vt 0.108932 0.444164
vt 0.750000 0.490000
vt 0.891068 0.444164
vt 0.978254 0.324164
vt 0.978254 0.175836
vt 0.891068 0.055836
vt 0.750000 0.010000
vt 0.608932 0.055836
vt 0.521746 0.175836
vt 0.521746 0.324164
vt 0.608932 0.444164
vn 0.2791 0.4294 -0.8589
vn 0.7306 0.4294 -0.5308
vn 0.9031 0.4294 0.0000
vn 0.7306 0.4294 0.5308
vn 0.2791 0.4294 0.8589
vn -0.2791 0.4294 0.8589
vn -0.7306 0.4294 0.5308
vn -0.9031 0.4294 0.0000
vn -0.7306 0.4294 -0.5308
vn -0.2791 0.4294 -0.8589
vn 0.0000 -1.0000 0.0000
usemtl Material.002
s off
f 23/43/23 30/44/23 24/45/23
f 24/45/24 30/44/24 25/46/24
f 25/46/25 30/44/25 26/47/25
f 26/47/26 30/44/26 27/48/26
f 27/48/27 30/44/27 28/49/27
f 28/49/28 30/44/28 29/50/28
f 29/50/29 30/44/29 31/51/29
f 31/51/30 30/44/30 32/52/30
f 32/52/31 30/44/31 33/53/31
f 33/53/32 30/44/32 23/43/32
f 23/54/33 24/55/33 25/56/33 26/57/33 27/58/33 28/59/33 29/60/33 31/61/33 32/62/33 33/63/33
o Cylinder
v 0.000000 0.865802 -0.508091
v 0.000000 2.561714 -0.508091
v 0.298648 0.865802 -0.411054
v 0.298648 2.561714 -0.411054
v 0.483223 0.865802 -0.157009
v 0.483223 2.561714 -0.157009
v 0.483223 0.865802 0.157009
v 0.483223 2.561714 0.157009
v 0.298648 0.865802 0.411054
v 0.298648 2.561714 0.411054
v -0.000000 0.865802 0.508091
v -0.000000 2.561714 0.508091
v -0.298648 0.865802 0.411054
v -0.298648 2.561714 0.411054
v -0.483223 0.865802 0.157009
v -0.483223 2.561714 0.157009
v -0.483223 0.865802 -0.157009
v -0.483223 2.561714 -0.157009
v -0.298648 0.865802 -0.411054
v -0.298648 2.561714 -0.411054
vt 1.000000 0.500000
vt 1.000000 1.000000
vt 0.900000 1.000000
vt 0.900000 0.500000
vt 0.800000 1.000000
vt 0.800000 0.500000
vt 0.700000 1.000000
vt 0.700000 0.500000
vt 0.600000 1.000000
vt 0.600000 0.500000
vt 0.500000 1.000000
vt 0.500000 0.500000
vt 0.400000 1.000000
vt 0.400000 0.500000
vt 0.300000 1.000000
vt 0.300000 0.500000
vt 0.200000 1.000000
vt 0.200000 0.500000
vt 0.391068 0.444164
vt 0.250000 0.490000
vt 0.108932 0.444164
vt 0.021746 0.324164
vt 0.021746 0.175836
vt 0.108932 0.055836
vt 0.250000 0.010000
vt 0.391068 0.055836
vt 0.478254 0.175836
vt 0.478254 0.324164
vt 0.100000 1.000000
vt 0.100000 0.500000
vt -0.000000 1.000000
vt -0.000000 0.500000
vt 0.750000 0.490000
vt 0.891068 0.444164
vt 0.978254 0.324164
vt 0.978254 0.175836
vt 0.891068 0.055836
vt 0.750000 0.010000
vt 0.608932 0.055836
vt 0.521746 0.175836
vt 0.521746 0.324164
vt 0.608932 0.444164
vn 0.3090 0.0000 -0.9511
vn 0.8090 0.0000 -0.5878
vn 1.0000 0.0000 0.0000
vn 0.8090 0.0000 0.5878
vn 0.3090 0.0000 0.9511
vn -0.3090 0.0000 0.9511
vn -0.8090 0.0000 0.5878
vn -1.0000 0.0000 0.0000
vn 0.0000 1.0000 0.0000
vn -0.8090 0.0000 -0.5878
vn -0.3090 0.0000 -0.9511
vn 0.0000 -1.0000 -0.0000
usemtl Material.001
s off
f 34/64/34 35/65/34 37/66/34 36/67/34
f 36/67/35 37/66/35 39/68/35 38/69/35
f 38/69/36 39/68/36 41/70/36 40/71/36
f 40/71/37 41/70/37 43/72/37 42/73/37
f 42/73/38 43/72/38 45/74/38 44/75/38
f 44/75/39 45/74/39 47/76/39 46/77/39
f 46/77/40 47/76/40 49/78/40 48/79/40
f 48/79/41 49/78/41 51/80/41 50/81/41
f 37/82/42 35/83/42 53/84/42 51/85/42 49/86/42 47/87/42 45/88/42 43/89/42 41/90/42 39/91/42
f 50/81/43 51/80/43 53/92/43 52/93/43
f 52/93/44 53/92/44 35/94/44 34/95/44
f 34/96/45 36/97/45 38/98/45 40/99/45 42/100/45 44/101/45 46/102/45 48/103/45 50/104/45 52/105/45
